# xmcd CD database file
#
# Track frame offsets:
#	150
#	19360
#	35409
#	48056
#	60302
#	73536
#	81801
#	95752
#	111819
#	123042
#	134364
#	148002
#	161062
#	173845
#	191013
#	201813
#	227962
#	241204
#	258055
#	270058
#	278277
#	288954
#	303137
#	317371
#
# Disc length: 4389 seconds
#
# Revision: 0
# Processed by: cddbd v1.5.2PL0 Copyright (c) Steve Scherf et al.
# Submitted via: CDex 1.51
#
DISCID=3b112318
DTITLE=Johnny Cash - Black Stud in the Sky
DYEAR=1900
DGENRE=Country
TTITLE0=Sunday morning coming down (Live at Montreaux Festival)
TTITLE1=(Ghost) Riders in the Sky (Live at Montreaux Festival)
TTITLE2=Tennessee Stud (Live at Montreaux Festival)
TTITLE3=Redemption Song (Live at Montreaux Festival)
TTITLE4=Any old Wind that blows (Live at Rocky Gap festival)
TTITLE5=Busted (Live at Rocky Gap festival)
TTITLE6=Call me the Breeze (Live at Rocky Gap festival)
TTITLE7=(Ghost) Riders in the Sky (Live at Rocky Gap festival)
TTITLE8=There are my People
TTITLE9=I can't go on that Way
TTITLE10=Thirteen (American Outtakes)
TTITLE11=Like a Soldier (With Willie Nelson)
TTITLE12=Cindy (With Nick cave)
TTITLE13=The Man comes around (Early Take)
TTITLE14=Drive on (Alternate Version)
TTITLE15=Down there by the Train (Alternate Take)
TTITLE16=Heart of Gold
TTITLE17=Pocahontas
TTITLE18=Wildwood in the Pines (Intimate Session)
TTITLE19=No earthly Good (Intimate Session)
TTITLE20=What is Man (Private Demo)
TTITLE21=Tennessee Flat - Top Box (Live at Rocky Gap festival)
TTITLE22=Hey Porter (Live at Rocky Gap festival)
TTITLE23=Highwayman (Early Record)
EXTD=
EXTT0=
EXTT1=
EXTT2=
EXTT3=
EXTT4=
EXTT5=
EXTT6=
EXTT7=
EXTT8=
EXTT9=
EXTT10=
EXTT11=
EXTT12=
EXTT13=
EXTT14=
EXTT15=
EXTT16=
EXTT17=
EXTT18=
EXTT19=
EXTT20=
EXTT21=
EXTT22=
EXTT23=
PLAYORDER=
